<svg id="visual" viewBox="0 0 960 540" width="960" height="540" xmlns="http://www.w3.org/2000/svg" xmlns:xlink="http://www.w3.org/1999/xlink" version="1.1"><path d="M0 359L22.8 344.2C45.7 329.3 91.3 299.7 137 289C182.7 278.3 228.3 286.7 274 292C319.7 297.3 365.3 299.7 411.2 310C457 320.3 503 338.7 548.8 333.5C594.7 328.3 640.3 299.7 686 297.5C731.7 295.3 777.3 319.7 823 321.7C868.7 323.7 914.3 303.3 937.2 293.2L960 283L960 541L937.2 541C914.3 541 868.7 541 823 541C777.3 541 731.7 541 686 541C640.3 541 594.7 541 548.8 541C503 541 457 541 411.2 541C365.3 541 319.7 541 274 541C228.3 541 182.7 541 137 541C91.3 541 45.7 541 22.8 541L0 541Z" fill="#f6921c"></path><path d="M0 323L22.8 325.7C45.7 328.3 91.3 333.7 137 345.3C182.7 357 228.3 375 274 378.8C319.7 382.7 365.3 372.3 411.2 363.8C457 355.3 503 348.7 548.8 341.7C594.7 334.7 640.3 327.3 686 327.5C731.7 327.7 777.3 335.3 823 339.3C868.7 343.3 914.3 343.7 937.2 343.8L960 344L960 541L937.2 541C914.3 541 868.7 541 823 541C777.3 541 731.7 541 686 541C640.3 541 594.7 541 548.8 541C503 541 457 541 411.2 541C365.3 541 319.7 541 274 541C228.3 541 182.7 541 137 541C91.3 541 45.7 541 22.8 541L0 541Z" fill="#b6b134"></path><path d="M0 395L22.8 394.8C45.7 394.7 91.3 394.3 137 392.7C182.7 391 228.3 388 274 386.8C319.7 385.7 365.3 386.3 411.2 395.7C457 405 503 423 548.8 429.2C594.7 435.3 640.3 429.7 686 429.3C731.7 429 777.3 434 823 436.3C868.7 438.7 914.3 438.3 937.2 438.2L960 438L960 541L937.2 541C914.3 541 868.7 541 823 541C777.3 541 731.7 541 686 541C640.3 541 594.7 541 548.8 541C503 541 457 541 411.2 541C365.3 541 319.7 541 274 541C228.3 541 182.7 541 137 541C91.3 541 45.7 541 22.8 541L0 541Z" fill="#80c072"></path><path d="M0 435L22.8 434.7C45.7 434.3 91.3 433.7 137 434.8C182.7 436 228.3 439 274 446.5C319.7 454 365.3 466 411.2 470.7C457 475.3 503 472.7 548.8 464.2C594.7 455.7 640.3 441.3 686 441.7C731.7 442 777.3 457 823 463C868.7 469 914.3 466 937.2 464.5L960 463L960 541L937.2 541C914.3 541 868.7 541 823 541C777.3 541 731.7 541 686 541C640.3 541 594.7 541 548.8 541C503 541 457 541 411.2 541C365.3 541 319.7 541 274 541C228.3 541 182.7 541 137 541C91.3 541 45.7 541 22.8 541L0 541Z" fill="#67c4aa"></path><path d="M0 499L22.8 494.8C45.7 490.7 91.3 482.3 137 476.7C182.7 471 228.3 468 274 471C319.7 474 365.3 483 411.2 490.7C457 498.3 503 504.7 548.8 506.5C594.7 508.3 640.3 505.7 686 497.5C731.7 489.3 777.3 475.7 823 472.5C868.7 469.3 914.3 476.7 937.2 480.3L960 484L960 541L937.2 541C914.3 541 868.7 541 823 541C777.3 541 731.7 541 686 541C640.3 541 594.7 541 548.8 541C503 541 457 541 411.2 541C365.3 541 319.7 541 274 541C228.3 541 182.7 541 137 541C91.3 541 45.7 541 22.8 541L0 541Z" fill="#84c0c6"></path></svg>