<svg xmlns="http://www.w3.org/2000/svg" width="32" height="32" viewBox="0 0 32 32" shape-rendering="crispEdges"><metadata><rdf:RDF xmlns:rdf="http://www.w3.org/1999/02/22-rdf-syntax-ns#" xmlns:dc="http://purl.org/dc/elements/1.1/"><rdf:Description><dc:creator>RealFaviconGenerator</dc:creator><dc:source>https://realfavicongenerator.net</dc:source></rdf:Description></rdf:RDF></metadata><rect x="3" y="2" width="2" height="1" fill="#000000"></rect><rect x="10" y="2" width="2" height="1" fill="#000000"></rect><rect x="17" y="2" width="8" height="1" fill="#000000"></rect><rect x="27" y="2" width="2" height="1" fill="#000000"></rect><rect x="2" y="3" width="4" height="1" fill="#000000"></rect><rect x="9" y="3" width="4" height="1" fill="#000000"></rect><rect x="16" y="3" width="7" height="1" fill="#000000"></rect><rect x="26" y="3" width="4" height="1" fill="#000000"></rect><rect x="2" y="4" width="4" height="1" fill="#000000"></rect><rect x="9" y="4" width="4" height="1" fill="#000000"></rect><rect x="16" y="4" width="7" height="1" fill="#000000"></rect><rect x="24" y="4" width="6" height="1" fill="#000000"></rect><rect x="2" y="5" width="4" height="1" fill="#000000"></rect><rect x="9" y="5" width="4" height="1" fill="#000000"></rect><rect x="16" y="5" width="3" height="1" fill="#000000"></rect><rect x="24" y="5" width="5" height="1" fill="#000000"></rect><rect x="2" y="6" width="4" height="1" fill="#000000"></rect><rect x="9" y="6" width="4" height="1" fill="#000000"></rect><rect x="16" y="6" width="3" height="1" fill="#000000"></rect><rect x="22" y="6" width="6" height="1" fill="#000000"></rect><rect x="2" y="7" width="4" height="1" fill="#000000"></rect><rect x="9" y="7" width="4" height="1" fill="#000000"></rect><rect x="16" y="7" width="3" height="1" fill="#000000"></rect><rect x="22" y="7" width="5" height="1" fill="#000000"></rect><rect x="2" y="8" width="4" height="1" fill="#000000"></rect><rect x="9" y="8" width="4" height="1" fill="#000000"></rect><rect x="16" y="8" width="3" height="1" fill="#000000"></rect><rect x="20" y="8" width="6" height="1" fill="#000000"></rect><rect x="2" y="9" width="4" height="1" fill="#000000"></rect><rect x="9" y="9" width="4" height="1" fill="#000000"></rect><rect x="16" y="9" width="1" height="1" fill="#000000"></rect><rect x="20" y="9" width="5" height="1" fill="#000000"></rect><rect x="2" y="10" width="4" height="1" fill="#000000"></rect><rect x="9" y="10" width="4" height="1" fill="#000000"></rect><rect x="16" y="10" width="1" height="1" fill="#000000"></rect><rect x="18" y="10" width="6" height="1" fill="#000000"></rect><rect x="2" y="11" width="4" height="1" fill="#000000"></rect><rect x="9" y="11" width="4" height="1" fill="#000000"></rect><rect x="18" y="11" width="5" height="1" fill="#000000"></rect><rect x="2" y="12" width="4" height="1" fill="#000000"></rect><rect x="9" y="12" width="4" height="1" fill="#000000"></rect><rect x="16" y="12" width="6" height="1" fill="#000000"></rect><rect x="2" y="13" width="4" height="1" fill="#000000"></rect><rect x="9" y="13" width="4" height="1" fill="#000000"></rect><rect x="16" y="13" width="5" height="1" fill="#000000"></rect><rect x="2" y="14" width="4" height="1" fill="#000000"></rect><rect x="9" y="14" width="4" height="1" fill="#000000"></rect><rect x="14" y="14" width="6" height="1" fill="#000000"></rect><rect x="2" y="15" width="4" height="1" fill="#000000"></rect><rect x="9" y="15" width="2" height="1" fill="#000000"></rect><rect x="14" y="15" width="5" height="1" fill="#000000"></rect><rect x="2" y="16" width="4" height="1" fill="#000000"></rect><rect x="9" y="16" width="2" height="1" fill="#000000"></rect><rect x="12" y="16" width="6" height="1" fill="#000000"></rect><rect x="2" y="17" width="4" height="1" fill="#000000"></rect><rect x="12" y="17" width="5" height="1" fill="#000000"></rect><rect x="2" y="18" width="4" height="1" fill="#000000"></rect><rect x="10" y="18" width="6" height="1" fill="#000000"></rect><rect x="18" y="18" width="1" height="1" fill="#000000"></rect><rect x="2" y="19" width="4" height="1" fill="#000000"></rect><rect x="10" y="19" width="5" height="1" fill="#000000"></rect><rect x="17" y="19" width="2" height="1" fill="#000000"></rect><rect x="23" y="19" width="7" height="1" fill="#000000"></rect><rect x="2" y="20" width="4" height="1" fill="#000000"></rect><rect x="8" y="20" width="6" height="1" fill="#000000"></rect><rect x="16" y="20" width="3" height="1" fill="#000000"></rect><rect x="23" y="20" width="7" height="1" fill="#000000"></rect><rect x="2" y="21" width="4" height="1" fill="#000000"></rect><rect x="8" y="21" width="5" height="1" fill="#000000"></rect><rect x="16" y="21" width="3" height="1" fill="#000000"></rect><rect x="23" y="21" width="2" height="1" fill="#000000"></rect><rect x="26" y="21" width="4" height="1" fill="#000000"></rect><rect x="2" y="22" width="10" height="1" fill="#000000"></rect><rect x="16" y="22" width="3" height="1" fill="#000000"></rect><rect x="25" y="22" width="5" height="1" fill="#000000"></rect><rect x="2" y="23" width="9" height="1" fill="#000000"></rect><rect x="16" y="23" width="3" height="1" fill="#000000"></rect><rect x="24" y="23" width="3" height="1" fill="#000000"></rect><rect x="28" y="23" width="2" height="1" fill="#000000"></rect><rect x="2" y="24" width="8" height="1" fill="#000000"></rect><rect x="12" y="24" width="1" height="1" fill="#000000"></rect><rect x="16" y="24" width="3" height="1" fill="#000000"></rect><rect x="23" y="24" width="3" height="1" fill="#000000"></rect><rect x="27" y="24" width="3" height="1" fill="#000000"></rect><rect x="2" y="25" width="7" height="1" fill="#000000"></rect><rect x="11" y="25" width="2" height="1" fill="#000000"></rect><rect x="16" y="25" width="3" height="1" fill="#000000"></rect><rect x="22" y="25" width="3" height="1" fill="#000000"></rect><rect x="27" y="25" width="3" height="1" fill="#000000"></rect><rect x="2" y="26" width="6" height="1" fill="#000000"></rect><rect x="10" y="26" width="3" height="1" fill="#000000"></rect><rect x="16" y="26" width="3" height="1" fill="#000000"></rect><rect x="21" y="26" width="3" height="1" fill="#000000"></rect><rect x="2" y="27" width="5" height="1" fill="#000000"></rect><rect x="9" y="27" width="4" height="1" fill="#000000"></rect><rect x="16" y="27" width="3" height="1" fill="#000000"></rect><rect x="20" y="27" width="3" height="1" fill="#000000"></rect><rect x="2" y="28" width="4" height="1" fill="#000000"></rect><rect x="9" y="28" width="4" height="1" fill="#000000"></rect><rect x="16" y="28" width="6" height="1" fill="#000000"></rect><rect x="3" y="29" width="2" height="1" fill="#000000"></rect><rect x="10" y="29" width="2" height="1" fill="#000000"></rect><rect x="17" y="29" width="4" height="1" fill="#000000"></rect></svg>