<svg xmlns="http://www.w3.org/2000/svg" xmlns:graphite="https://graphite.art" viewBox="0 0 1080 1080" width="1080" height="1080"><defs><clipPath id="artboard-7366792766442951183"><rect x="0" y="0" width="1080" height="1080" /></clipPath></defs><g>
<rect fill="#ffffff" fill-opacity="0" x="0" y="0" width="1080" height="1080"/>
<g clip-path="url(#artboard-7366792766442951183)">
	<g>
		<path d="M265.54491524,379.65171544000003 C335.37856309,259.39179043 540,217.40168802 540,217.40168802 C540,217.40168802 749.53375005,257.72647702 819.37833339,378.70084401 C889.2229167400001,499.675211 819.37833339,701.29915599 819.37833339,701.29915599 C819.37833339,701.29915599 679.6891667,862.5983119800001 540,862.5983119800001 C400.3108333,862.5983119800001 260.62166661000003,701.29915599 260.62166661000003,701.29915599 C260.62166661000003,701.29915599 195.08524849,500.98970221 265.54491524,379.65171544000003 ZM541.66023112,308.22659617 C413.77119499,308.22659617 309.88682729,412.11096387000003 309.88682729,540 C309.88682729,642.6311025951236 376.7892063628215,729.8030031719126 469.31075417475034,760.2324913640668 C476.3953041468508,724.2444642913164 488.1634339636376,664.4648342431168 494.1607014921705,633.9999736631146 C465.6313283675596,613.0577155154531 463.49998474,570.6450636025575 463.49998474,540 C463.49998474,497.78845608 497.78845608,463.49998474 540,463.49998474 C582.21154392,463.49998474 616.50001526,497.78845608 616.50001526,540 C616.5000152606373,570.3615312698475 613.4259962072398,612.2739074966956 585.091165699939,633.4132043224907 C591.2442827294967,663.8442921448009 603.6928821824038,725.4105554540935 610.9335559427782,761.2203046671898 C705.0446732086264,731.7274488226662 773.43363495,643.7650785181243 773.43363495,540 C773.43363495,412.11096387000003 669.5492672400001,308.22659617 541.66023112,308.22659617 Z" transform="matrix(1.626661395,0,0,1.626661395,-341.097787047,-338.39715318)" fill="#000000" stroke-width="2" stroke="#000000"/>
	</g>
</g></g></svg>