<svg xmlns="http://www.w3.org/2000/svg" width="640" height="256" viewBox="0 0 640 256" role="img" aria-labelledby="title desc">
  <title id="title">VIG locked-play logo lockup</title>
  <desc id="desc">The VIG wordmark paired with an orange play triangle locked into a tilted cyan V-shaped gateway.</desc>
  <defs>
    <style>
      .frame { fill: none; stroke: #bdf8ff; stroke-width: 30; stroke-linecap: round; stroke-linejoin: round; }
      .line { fill: none; stroke: #0b0c0f; stroke-width: 5; stroke-linecap: round; stroke-linejoin: round; }
      .signal { fill: #f6921e; }
      .signal-shadow { fill: #b96a06; opacity: 0.32; }
      .word { fill: #f5f6f8; }
    </style>
  </defs>
  <g transform="translate(0 0)">
    <path class="frame" d="M80 50 76 208 214 128"/>
    <path class="line" d="M72 52 68 218"/>
    <path class="line" d="M82 210 222 130"/>
    <path class="signal-shadow" d="M100 80 100 178 189 128Z"/>
    <path class="signal" d="M106 72 106 184 202 128Z"/>
  </g>
  <!-- "VIG" wordmark, Inter 600 baked to outlines (no live font: SVG-as-<img> can't load next/font's Inter). -->
  <path class="word" d="M311.75 164 282.73 82.52H298.74L313.17 124.84Q315.22 131.2 317.56 139.47Q319.91 147.74 322.66 158.19H319.6Q322.31 147.57 324.58 139.38Q326.85 131.2 328.82 124.84L342.81 82.52H358.78L330.28 164ZM384.28 82.52V164H369.67V82.52ZM435.86 165.09Q424.62 165.09 416.13 160.02Q407.64 154.94 402.89 145.57Q398.14 136.2 398.14 123.35Q398.14 110.21 403.02 100.83Q407.9 91.46 416.33 86.44Q424.76 81.42 435.4 81.42Q442.13 81.42 447.95 83.39Q453.77 85.35 458.34 88.98Q462.91 92.62 465.83 97.59Q468.76 102.56 469.69 108.55H454.8Q453.82 105.28 452.09 102.69Q450.35 100.11 447.91 98.27Q445.48 96.43 442.39 95.47Q439.3 94.51 435.59 94.51Q429.02 94.51 423.85 97.83Q418.69 101.15 415.75 107.56Q412.81 113.97 412.81 123.23Q412.81 132.46 415.74 138.88Q418.67 145.29 423.87 148.65Q429.07 152 435.94 152Q442.16 152 446.73 149.6Q451.3 147.2 453.77 142.77Q456.24 138.35 456.24 132.34L459.62 132.88H437.42V121.41H470.43V131.17Q470.43 141.66 465.97 149.26Q461.52 156.87 453.72 160.98Q445.93 165.09 435.86 165.09Z"/>
</svg>
